<svg xmlns="http://www.w3.org/2000/svg" viewBox="0 0 219.09 93.16"><defs><style>.cls-1{fill:#ffffff;}</style></defs><title>Asset 1</title><g id="Layer_2" data-name="Layer 2"><g id="Layer_1-2" data-name="Layer 1"><path class="cls-1" d="M26.05,4.58V.8h2v9.88h-2V6.9H14.92V4.58Z"/><path class="cls-1" d="M28,12.35v2.32H22.75V19H28v2.32H14.92V19h5.8V14.67h-5.8V12.35Z"/><path class="cls-1" d="M0,.8H11.52V34.71H28v9.64H0Z"/><path class="cls-1" d="M32.7.8H60.84v9.65H44.22v6.84h14.2v9.65H44.22v7.77H61.51v9.64H32.7Z"/><path class="cls-1" d="M93.49,44.35h12.2L92.42.8H78.48L65.22,44.35H77l2.16-9.24H91.33ZM81.26,26.2l.71-3C83,19,84.11,13.8,85.05,9.38h.27c1.07,4.36,2.14,9.65,3.21,13.8l.71,3Z"/><path class="cls-1" d="M105.4,22.91c0-14.6,10-22.91,21.71-22.91a19.68,19.68,0,0,1,14.21,5.76l-6,7.37a10.94,10.94,0,0,0-7.78-3.21c-5.89,0-10.31,4.69-10.31,12.59,0,8.18,3.61,12.73,11.39,12.73a6.62,6.62,0,0,0,3.35-.8v-6H125.5V19h16.62V39.8c-3.08,3-8.58,5.36-14.74,5.36C115.19,45.16,105.4,37.79,105.4,22.91Z"/><path class="cls-1" d="M182.32.8V23.31c0,14.88-5.62,21.84-17.82,21.84s-18.09-7-18.09-21.84V.8h15.2c-1.23,3.7-2.44,7.35-3.67,11l-1.23,3.68h7L159.07,32l-.84,3.05.12,0,1.32-2,11.53-18,3.25-5.06H167C168.39,7,169.76,3.89,171.13.8Z"/><path class="cls-1" d="M188,.8h28.14v9.65H199.47v6.84h14.21v9.65H199.47v7.77h17.29v9.64H188Z"/><path class="cls-1" d="M0,48.8H11.52V65h13V48.8H36.05V92.35H24.52V75.07h-13V92.35H0Z"/><path class="cls-1" d="M40.94,48.8H69.08v9.65H52.47v6.84h14.2v9.65H52.47v7.77H69.75v9.64H40.94Z"/><path class="cls-1" d="M101.15,75.43c4.24-2.28,7.06-6.33,7.06-12.56,0-10.85-8-14.07-17.42-14.07H74.31V92.35H85.83V77.75h4.43l7.5,14.6h12.86ZM90,68.64H85.83V57.92H90c4.55,0,7,1.2,7,4.95S94.54,68.64,90,68.64Z"/><path class="cls-1" d="M154.57,48.8h28.14v9.65H166.1v6.84h14.2v9.65H166.1v7.77h17.28v9.64H154.57Z"/><path class="cls-1" d="M185.59,86.93,192.16,79c3.08,2.48,7,4.22,10.18,4.22,3.49,0,5-1.14,5-3.08s-2.21-2.75-5.89-4.22L196,73.66c-4.69-1.87-8.78-5.83-8.78-12.13,0-7.43,6.7-13.53,16.22-13.53a21,21,0,0,1,14.47,5.83l-5.76,7.24c-2.95-2.08-5.5-3.15-8.71-3.15-2.82,0-4.56,1-4.56,2.94s2.48,2.82,6.43,4.36l5.29,2.08c5.43,2.14,8.51,5.89,8.51,11.92,0,7.37-6.16,13.94-17,13.94A25.24,25.24,0,0,1,185.59,86.93Z"/><path class="cls-1" d="M131.11,61.83c-2.84,0-4.65,1.33-4.65,3.38s1.81,3.39,4.65,3.39,4.54-1.33,4.54-3.39S133.94,61.83,131.11,61.83Z"/><path class="cls-1" d="M131.06,48c-12.06,0-20.24,8-20.24,22.38S119,93.16,131.06,93.16s20.23-8.44,20.23-22.78S143.12,48,131.06,48Zm6.31,33.31h-1.89V75.73H131.9v4.75H130V75.73h-5.27V73.41h12.62ZM131.11,71c-4.09,0-6.6-2.36-6.6-5.77s2.51-5.77,6.6-5.77,6.49,2.36,6.49,5.77S135.18,71,131.11,71Z"/><polygon class="cls-1" points="14.92 31.36 16.88 31.36 16.88 25.82 20.75 25.82 20.75 30.52 22.7 30.52 22.7 25.82 26.05 25.82 26.05 31.36 28.01 31.36 28.01 23.5 14.92 23.5 14.92 31.36"/></g></g></svg>