<svg xmlns="http://www.w3.org/2000/svg" viewBox="0 0 155.55 32.81"><defs><style>.cls-1{fill:#fff;}</style></defs><title>Asset 1</title><g id="Layer_2" data-name="Layer 2"><g id="Layer_1-2" data-name="Layer 1"><path class="cls-1" d="M6.88,9.53h-3a.56.56,0,0,0-.62.62v1.2H0V8.22C0,6.9.45,6.43,1.79,6.43H15.63c1.34,0,1.79.47,1.79,1.79v3.13H14.2v-1.2a.56.56,0,0,0-.62-.62h-3V26.27H6.88Z"/><path class="cls-1" d="M21.78,11.68c4.08,0,6.32,3,6.32,6.76,0,.42-.08,1.31-.08,1.31H18.17a4.1,4.1,0,0,0,4.28,3.83,6.48,6.48,0,0,0,4-1.59l1.48,2.46a8.67,8.67,0,0,1-5.73,2.15,7.31,7.31,0,0,1-7.66-7.46C14.54,14.76,17.5,11.68,21.78,11.68Zm2.68,5.62a2.77,2.77,0,0,0-2.68-2.88,3.42,3.42,0,0,0-3.49,2.88Z"/><path class="cls-1" d="M37.06,11.68c1.84,0,5.17.75,5.17,3.21v1.68H39.11v-.78c0-.78-1.17-1.12-2-1.12a4.19,4.19,0,0,0-4.22,4.44,4.22,4.22,0,0,0,4.44,4.39,6.44,6.44,0,0,0,4.22-1.93L43,24a8.15,8.15,0,0,1-6,2.57,7.32,7.32,0,0,1-7.72-7.46C29.27,15.12,32.17,11.68,37.06,11.68Z"/><path class="cls-1" d="M44.7,10.06a.55.55,0,0,0-.62-.62H43v-3h3.38c1.31,0,1.9.59,1.9,1.87v5c0,.7-.06,1.2-.06,1.2h.06a5.44,5.44,0,0,1,4.89-2.82c3.19,0,5,1.65,5,5.42v5.56a.56.56,0,0,0,.61.62h1.12v3H56.46c-1.31,0-1.87-.56-1.87-1.9V17.83c0-1.73-.48-2.91-2.26-2.91a4,4,0,0,0-3.86,3,6.42,6.42,0,0,0-.22,1.85v6.54H44.7Z"/><path class="cls-1" d="M62.19,21.75a6.38,6.38,0,0,0,4.25,2.1c1.09,0,1.93-.45,1.93-1.4,0-2-7.52-2-7.52-6.6,0-2.85,2.57-4.16,5.53-4.16,1.93,0,5,.64,5,3v1.48H68.26v-.7c0-.67-1-1-1.79-1-1.26,0-2.12.45-2.12,1.29,0,2.24,7.58,1.79,7.58,6.54,0,2.68-2.38,4.36-5.48,4.36a7.82,7.82,0,0,1-5.93-2.54Z"/><path class="cls-1" d="M74.38,15.65a.55.55,0,0,0-.62-.62H72.65V12h3.16c1.31,0,1.79.59,1.79,1.37v.56h.06a5,5,0,0,1,4.53-2.26c3.86,0,6.35,3,6.35,7.46s-2.8,7.46-6.54,7.46a5,5,0,0,1-4.08-1.87h-.06s.06.5.06,1.23v5.9H74.38Zm7,8c2,0,3.61-1.59,3.61-4.42s-1.45-4.47-3.55-4.47c-1.85,0-3.58,1.34-3.58,4.5C77.82,21.44,79,23.62,81.34,23.62Z"/><path class="cls-1" d="M90.59,10.06A.55.55,0,0,0,90,9.45H88.86v-3h3.38c1.31,0,1.9.59,1.9,1.9V22.67a.56.56,0,0,0,.62.62h1.09v3H92.49c-1.34,0-1.9-.56-1.9-1.9Z"/><path class="cls-1" d="M99.09,29.15a2.55,2.55,0,0,0,2.35-1.82l.48-1.09L97.16,15.54a.67.67,0,0,0-.75-.5H96V12h2.35a1.73,1.73,0,0,1,1.87,1.34l2.8,7.13a14,14,0,0,1,.5,1.9h.06a17.24,17.24,0,0,1,.48-1.9l2.43-7.13a1.76,1.76,0,0,1,1.9-1.34h2.4v3h-.42a.71.71,0,0,0-.81.5l-5.12,12.89a5.39,5.39,0,0,1-5.14,3.72,5.28,5.28,0,0,1-3.61-1.45L97,28.18A3.07,3.07,0,0,0,99.09,29.15Z"/><path class="cls-1" d="M151.79,9.25l-1.15.66-.69.4a1.4,1.4,0,0,0-.69,1.2v3.74H146.6V11.67a1.38,1.38,0,0,0-.23-.77,1.53,1.53,0,0,0-.21-.26,1.31,1.31,0,0,0-.36-.32l-3-1.72L144.2,6.2l3,1.72a1.39,1.39,0,0,0,1.38,0l.69-.4,1.15-.67-3.26-5.64a2.38,2.38,0,0,0-2-1.21H138.2V2.13a1.41,1.41,0,0,0,.7,1.2l3.23,1.87-1.33,2.31h0l-3.1-1.79a1.39,1.39,0,0,0-.79-.19,1.55,1.55,0,0,0-.34.05,1.33,1.33,0,0,0-.45.15l-.69.4-2.29,1.32-1.39-2.4L134,3.74l.69-.4a1.4,1.4,0,0,0,.69-1.2V0h-6.51a2.42,2.42,0,0,0-2.09,1.14l-3.45,6,1.85,1.07a1.4,1.4,0,0,0,1.39,0l.69-.4,2.53-1.47,1.33,2.31h0l-3.1,1.79a1.39,1.39,0,0,0-.56.59,1.53,1.53,0,0,0-.12.32,1.32,1.32,0,0,0-.09.46v3.45h-2.78V11.82a1.4,1.4,0,0,0-.7-1.21L122,9.55l-3.25,5.65a2.39,2.39,0,0,0,0,2.37l3.46,6,1.16-.67.69-.4a1.4,1.4,0,0,0,.69-1.2V17.55h2.65v3.59a1.38,1.38,0,0,0,.24.79,1.53,1.53,0,0,0,.22.25,1.32,1.32,0,0,0,.35.3l3,1.72-1.39,2.41-3-1.72a1.39,1.39,0,0,0-1.39,0l-.69.4-1.15.67,3.27,5.65a2.37,2.37,0,0,0,2,1.21h6.91V30.68a1.39,1.39,0,0,0-.69-1.2l-3.24-1.87,1.33-2.3h0l3.11,1.79a1.38,1.38,0,0,0,.81.19,1.55,1.55,0,0,0,.32-.06,1.33,1.33,0,0,0,.43-.15l.69-.4,2.28-1.32,1.39,2.4-2.28,1.32-.69.4a1.4,1.4,0,0,0-.69,1.2V32.8h6.52a2.37,2.37,0,0,0,2.07-1.14l3.45-6-1.85-1.07a1.4,1.4,0,0,0-1.39,0l-.69.4-2.54,1.47-1.33-2.3h0l3.1-1.8a1.39,1.39,0,0,0,.56-.6,1.55,1.55,0,0,0,.11-.31,1.32,1.32,0,0,0,.09-.46V17.55h2.77V21a1.4,1.4,0,0,0,.7,1.2L152,23.26l3.25-5.65a2.39,2.39,0,0,0,0-2.37Z"/></g></g></svg>
