<svg version="1.1" xmlns="http://www.w3.org/2000/svg" width="500px" height="109.796px">
<path fill="#EE3534" d="M33.484,93.039c9.924,0,15.976-5.111,15.976-11.631c0-9.916-10.857-12.709-25.586-20.306
	C9.296,53.649,1.7,42.955,1.7,30.553C1.7,12.715,16.107,0,40.314,0c8.982,0,17.362,1.711,26.36,4.964v17.671
	c-8.84-4.487-15.972-7.124-21.865-7.124c-8.379,0-13.803,4.646-13.803,10.226c0,8.681,11.167,11.798,29.307,21.714
	c12.096,6.671,17.671,15.821,17.671,28.536c0,19.692-16.282,33.347-41.395,33.347c-10.389,0-20.483-2.021-31.177-5.588L0,81.408
	C12.243,88.86,22.635,93.039,33.484,93.039 M124.375,44.285c-6.171,0-10.126,4.114-10.444,11.71h20.249
	C134.179,48.244,130.705,44.285,124.375,44.285 M113.295,69.927c0,0.953-0.159,1.896-0.159,2.685
	c0,13.597,8.864,21.515,23.259,21.515c7.12,0,15.674-2.998,26.424-8.061l-5.691,18.352c-9.344,3.164-18.199,5.379-28.171,5.379
	c-28.317,0-44.929-15.976-44.929-39.715c0-23.729,17.401-40.508,41.141-40.508c21.047,0,36.701,14.872,36.701,38.301v2.053H113.295
	L113.295,69.927z M171.694,93.5V46.66c0-6.171-1.271-10.433-5.377-14.244h7.283c8.228,0,16.607-0.307,25.312-1.74l0.627,7.76
	c6.33-5.07,12.343-7.597,19.459-7.597c16.623,0,27.376,10.603,27.376,27.85V93.5c0,6.172,1.264,10.277,5.385,14.082h-38.606
	c4.114-3.805,5.377-7.91,5.377-14.082V69.287c0-14.712-1.906-22.473-9.972-22.473c-8.383,0-9.019,7.76-9.019,22.473V93.5
	c0,6.17,1.267,10.276,5.377,14.08h-38.599C170.423,103.776,171.694,99.669,171.694,93.5 M295.342,44.285
	c-6.175,0-10.13,4.114-10.447,11.71h20.26C305.154,48.244,301.676,44.285,295.342,44.285 M284.268,69.927
	c0,0.953-0.16,1.896-0.16,2.685c0,13.597,8.859,21.515,23.256,21.515c7.123,0,15.678-2.998,26.424-8.061l-5.688,18.352
	c-9.349,3.164-18.203,5.379-28.166,5.379c-28.33,0-44.938-15.976-44.938-39.715c0-23.729,17.405-40.508,41.146-40.508
	c21.043,0,36.7,14.872,36.7,38.301v2.053H284.268L284.268,69.927z M409.074,104.574c-8.232,3.639-16.311,5.219-24.848,5.219
	c-26.424,0-43.205-16.771-43.205-39.071c0-23.584,17.886-40.985,45.89-40.985c4.438,0,10.276,0.635,17.73,1.739v18.831
	c-6.342-3.324-11.4-5.067-15.516-5.067c-10.437,0-17.25,7.91-17.25,21.682c0,16.302,8.077,26.262,21.364,26.262
	c6.334,0,13.295-2.217,21.522-6.652L409.074,104.574z M444.468,85.267c0,5.54,3.947,9.341,10.921,9.341h1.255l-6.632,14.085
	c-4.438,0.316-7.449,0.469-9.34,0.469c-15.662,0-26.265-10.121-26.265-23.576c0-11.707,7.434-19.146,21.987-22.619
	c13.918-3.327,22.948-3.01,22.948-10.604c0-4.745-3.327-7.274-9.972-7.274c-6.325,0-12.978,1.572-20.093,4.424l7.434-16.934
	c6.008-1.739,11.702-2.843,17.723-2.843c12.334,0,21.21,2.537,26.9,8.387c6.647,6.799,6.807,15.349,6.807,26.253v1.43v17.568
	c0,8.23,2.852,10.603,11.857,11.865l-6.004,13.295c-4.118,0.321-6.966,0.477-8.86,0.477c-15.188,0-25.95-9.34-25.95-23.426V72.296
	C449.372,76.085,444.468,78.949,444.468,85.267"/>
</svg>
