<svg id="Layer_1" data-name="Layer 1" xmlns="http://www.w3.org/2000/svg" viewBox="0 0 264.66 111.35"><defs><style>.cls-1{fill:#f15a24;}.cls-2{fill:#fc6;}.cls-3{fill:none;stroke:#f15a24;stroke-miterlimit:10;stroke-width:3px;}</style></defs><title>logo-final</title><path class="cls-1" d="M71,90.43c-.23-3.14-.51-6.91-.47-9.71h-.14c-1.07,2.63-2.37,5.44-3.95,8.54L61.15,100l-3.33.17L52.75,89.47a81.1,81.1,0,0,1-3.63-8.75H49c-.1,2.8-.33,6.57-.61,10l-.83,9.65-3.88,2.94,2.58-30.15,4.78,4.7L56.43,88.7a73.48,73.48,0,0,1,3.16,7.58h.14A70.34,70.34,0,0,1,63,88.7l5.59-10.89,5.46-3.31L76,103.26l-4.24-2.94Z"/><path class="cls-2" d="M94.57,100.32l-.32-2h-.14a9.79,9.79,0,0,1-6.89,2.41c-4.56,0-6.88-2.31-6.88-4.65,0-3.9,4.83-6,13.53-6V89.7c0-1.34-.51-3.74-5.11-3.74a14.76,14.76,0,0,0-5.87,1.2L82,85.22a18.49,18.49,0,0,1,7.4-1.43c6.89,0,8.56,3.37,8.56,6.61v6a17,17,0,0,0,.37,3.88ZM94,92.07c-4.47-.07-9.54.5-9.54,3.64,0,1.9,1.77,2.8,3.86,2.8,2.93,0,4.79-1.33,5.45-2.7a2.45,2.45,0,0,0,.23-.94Z"/><path class="cls-2" d="M104,97.31a13.86,13.86,0,0,0,5.4,1.17c3,0,4.37-1.07,4.37-2.4s-1.16-2.17-4.19-3c-4-1-6-2.63-6-4.57,0-2.6,2.93-4.74,7.77-4.74,2.28,0,6.68-2.86,7.94-2.33l-3.43,5.47a11.37,11.37,0,0,0-4.61-.94c-2.42,0-3.77,1-3.77,2.21s1.35,1.93,4.29,2.73c3.9,1.07,5.9,2.48,5.9,4.88,0,2.84-3.07,4.84-8.42,4.84a16.94,16.94,0,0,1-6.32-1.1Z"/><path class="cls-2" d="M122.39,97.31a13.86,13.86,0,0,0,5.4,1.17c3,0,4.37-1.07,4.37-2.4s-1.16-2.17-4.19-3c-4-1-6-2.63-6-4.57,0-2.6,2.93-4.74,7.77-4.74,2.28,0,5.06-2.86,6.32-2.33l-1.81,5.47a11.35,11.35,0,0,0-4.6-.94c-2.42,0-3.77,1-3.77,2.21s1.35,1.93,4.28,2.73c3.91,1.07,5.91,2.48,5.91,4.88,0,2.84-3.07,4.84-8.42,4.84a17,17,0,0,1-6.33-1.1Z"/><path class="cls-2" d="M153.84,100.32l-.32-2h-.14a9.79,9.79,0,0,1-6.89,2.41c-4.56,0-6.89-2.31-6.89-4.65,0-3.9,4.84-6,13.54-6V89.7c0-1.34-.51-3.74-5.11-3.74a14.76,14.76,0,0,0-5.87,1.2l-.93-1.94a18.46,18.46,0,0,1,7.4-1.43c6.89,0,8.56,3.37,8.56,6.61v6a16.44,16.44,0,0,0,.37,3.88Zm-.6-8.25c-4.47-.07-9.54.5-9.54,3.64,0,1.9,1.77,2.8,3.86,2.8,2.93,0,4.79-1.33,5.44-2.7a2.3,2.3,0,0,0,.24-.94Z"/><path class="cls-2" d="M163.61,100.32c.09-1.1.19-2.74.19-4.18V76.61h4V86.76h.1c1.44-1.8,4-3,7.67-3,5.59,0,9.54,3.34,9.5,8.25,0,5.77-5.08,8.65-10.1,8.65-3.26,0-5.86-.91-7.54-3h-.14l-.18,2.67Zm4.23-6.48a4.21,4.21,0,0,0,.19,1.07c.79,2,3.16,3.44,6.14,3.44,4.28,0,6.84-2.51,6.84-6.21,0-3.24-2.33-6-6.7-6-2.79,0-5.4,1.36-6.23,3.6a4.11,4.11,0,0,0-.24,1.2Z"/><path class="cls-1" d="M194.83,79.61c-1.36.24-1,1.81-2.61,1.81-1.44,0,.1-1.74.1-2.74s-1.49-4.18,0-4.18S197.49,79.14,194.83,79.61Zm-4.56,20.71V84.16h4.09v16.16Z"/><path class="cls-2" d="M203.43,92.77c.1,4,3.63,5.61,7.73,5.61a20.21,20.21,0,0,0,6.23-.83l.7,2.1a24.5,24.5,0,0,1-7.49,1c-6.93,0-11.08-3.27-11.08-8.15s4-8.71,10.57-8.71c7.35,0,9.3,4.64,9.3,7.61a7.69,7.69,0,0,1-.14,1.37Zm12-2.1c0-1.87-1.07-4.78-5.68-4.78-4.14,0-6,2.74-6.28,4.78Z"/><path class="cls-2" d="M224.63,71.26h3.92v29.06h-4.09Z"/><path class="cls-2" d="M235.44,71.26h4.09v29.06h-4.09Z"/><path class="cls-2" d="M248.7,92.77c.09,4,3.63,5.61,7.72,5.61a20.28,20.28,0,0,0,6.24-.83l.69,2.1a24.5,24.5,0,0,1-7.49,1c-6.93,0-11.07-3.27-11.07-8.15s4-8.71,10.56-8.71c7.35,0,9.31,4.64,9.31,7.61a8.78,8.78,0,0,1-.14,1.37Zm12-2.1c.05-1.87-1.07-4.78-5.68-4.78-4.14,0-6,2.74-6.28,4.78Z"/><path class="cls-2" d="M16.74,45.23a10.14,10.14,0,0,0,8.5,4.47l12.6,6.57c-4.53,1.55-11.32,19.22-12.21,23.44-3.52,16.8-5,26.23-6.09,30.47s2.67-4.44,2.67-4.44L41.43,62.86l17.39,46.27s5.17,2.3,1.1.38c-3.77-1.79,4.18-4.36-2.34-25.75-1.31-4.32-7.46-25.43-12.12-26.56l10.87-8.91c3,1.39,5.93-3.4,9.36-5.44,9.47-5.63,3.32-13.52,1.62-18.61C65,17.14,74.94,10.5,63.19,13.66c-9.85,2.65-19.35,2.4-19,10,.12,2.58-.76,18.22,1,20.21l-2.36,8.23s-.71.12-1.87.37c-1.19-.14-2.64-8.7-2.64-8.7L36,40.85A44.14,44.14,0,0,1,34.66,28C34.31,20.4,12.1,5.76,2.68,1.09-8.41-4.4,19.1,12.36,10.31,17.1,4.55,20.2,7.81,32.31,16.74,45.23ZM59,16.88C63.85,16.66,63.8,26,64,29.57s-1.42,12.16-6.26,12.37-6.15-15-6.32-18.65S54.18,17.1,59,16.88ZM14.34,18.2c4.83-.22,16,16.28,16.12,19.9s2.63,6.35-2.2,6.57-10.23-2.33-10.4-6S9.5,18.42,14.34,18.2Z"/><line class="cls-3" x1="91.52" y1="73.81" x2="215.58" y2="72.42"/></svg>